<?xml version="1.0" standalone="no"?>
<!DOCTYPE svg PUBLIC "-//W3C//DTD SVG 20010904//EN"
 "http://www.w3.org/TR/2001/REC-SVG-20010904/DTD/svg10.dtd">
<svg version="1.0" xmlns="http://www.w3.org/2000/svg"
 width="877.000000pt" height="1280.000000pt" viewBox="0 0 877.000000 1280.000000"
 preserveAspectRatio="xMidYMid meet">
<g transform="translate(0.000000,1280.000000) scale(0.100000,-0.100000)"
fill="#000000" stroke="none">
<path d="M4153 12774 c-492 -59 -945 -309 -1259 -694 -262 -320 -414 -744
-414 -1149 0 -83 -4 -122 -12 -129 -7 -6 -67 -18 -133 -27 -172 -23 -391 -59
-613 -102 l-192 -37 -10 -36 c-5 -19 -19 -87 -30 -150 -12 -65 -28 -125 -38
-137 -9 -12 -68 -79 -131 -150 -724 -816 -1183 -1724 -1285 -2543 -45 -358
-44 -438 4 -780 77 -537 334 -1071 729 -1517 44 -50 81 -98 81 -105 0 -7 -34
-40 -76 -73 -42 -32 -82 -68 -90 -79 -23 -34 -18 -100 11 -134 14 -17 25 -36
25 -44 0 -8 -45 -62 -99 -120 -55 -59 -107 -120 -115 -137 -23 -43 -20 -136 5
-191 38 -85 153 -245 241 -336 242 -250 551 -382 940 -401 l137 -6 6 26 c11
43 -2 60 -83 105 -42 23 -108 66 -146 94 -82 62 -206 184 -206 204 0 18 -3 19
80 -22 103 -51 204 -74 319 -74 117 0 200 19 295 66 80 39 126 85 126 126 0
31 -9 35 -107 41 -46 2 -80 12 -136 40 -133 66 -334 263 -358 351 -15 55 0
130 46 223 41 82 57 91 126 73 183 -50 307 -214 361 -480 21 -104 34 -121 98
-138 47 -11 94 2 121 36 21 27 21 29 16 352 -10 587 -62 819 -197 872 -125 50
-381 7 -596 -99 l-75 -37 -39 46 c-42 48 -92 78 -133 78 -14 0 -47 -17 -76
-40 -28 -22 -55 -40 -60 -40 -18 0 -38 52 -90 227 -81 279 -135 549 -167 838
-19 177 -22 522 -5 675 53 486 233 893 519 1174 46 45 86 77 94 74 7 -3 28
-52 47 -109 246 -763 717 -1391 1394 -1862 l118 -82 197 -5 197 -5 0 -395 0
-395 -192 -3 c-146 -2 -193 -5 -193 -15 0 -49 66 -240 122 -354 l41 -82 -36
-43 c-214 -264 -417 -816 -497 -1351 -34 -232 -42 -337 -42 -572 -1 -431 53
-739 188 -1072 30 -74 54 -147 54 -164 0 -40 -30 -96 -77 -141 -56 -55 -176
-123 -488 -280 -417 -209 -622 -326 -772 -438 -128 -97 -133 -103 -178 -229
-24 -64 -80 -201 -125 -306 -45 -104 -91 -214 -101 -244 -23 -65 -25 -134 -4
-151 25 -21 86 -23 185 -6 133 23 261 64 462 150 209 89 226 93 259 67 32 -25
46 -72 54 -181 3 -47 8 -102 11 -123 7 -42 47 -97 72 -97 10 0 94 38 187 84
147 73 227 119 477 271 40 25 50 38 72 94 46 116 120 216 275 372 80 80 226
209 323 288 185 149 228 190 228 221 0 11 -24 37 -59 64 -151 116 -310 357
-382 580 -22 67 -22 72 -10 275 47 813 295 1579 714 2211 108 162 76 147 300
146 105 -1 198 -5 205 -9 19 -13 191 -277 257 -396 322 -580 514 -1254 556
-1955 l11 -198 -28 -86 c-72 -223 -223 -451 -375 -568 -35 -27 -59 -53 -59
-64 0 -31 43 -72 228 -221 97 -79 243 -208 323 -288 155 -156 229 -256 275
-372 22 -56 32 -69 72 -94 250 -152 330 -198 477 -271 93 -46 177 -84 187 -84
25 0 65 55 72 97 3 21 8 76 11 123 8 109 22 156 54 181 33 26 50 22 259 -67
201 -86 329 -127 462 -150 99 -17 160 -15 185 6 21 17 19 86 -4 151 -10 30
-56 140 -101 244 -45 105 -101 242 -125 306 -34 96 -48 123 -79 149 -157 138
-391 278 -864 514 -405 203 -523 279 -558 363 -22 52 -17 85 36 215 137 342
190 635 191 1058 0 235 -8 360 -36 560 -77 541 -271 1081 -494 1378 l-40 54
45 89 c49 97 98 239 109 312 l7 47 -223 2 -224 3 0 395 0 395 227 5 227 5 118
82 c677 470 1147 1099 1394 1862 19 57 40 106 47 109 8 3 48 -29 94 -74 286
-281 466 -688 519 -1174 17 -153 14 -498 -5 -675 -32 -289 -86 -559 -167 -838
-52 -175 -72 -227 -90 -227 -5 0 -32 18 -60 40 -29 23 -62 40 -76 40 -41 0
-91 -30 -133 -78 l-39 -46 -75 37 c-215 106 -471 149 -596 99 -135 -53 -187
-285 -197 -872 -5 -323 -5 -325 16 -352 27 -34 74 -47 121 -36 64 17 77 34 98
138 57 280 203 460 394 486 45 6 46 6 73 -34 38 -57 75 -165 75 -215 0 -23 -9
-60 -19 -82 -25 -53 -143 -179 -233 -248 -102 -78 -169 -107 -270 -115 -80 -7
-83 -8 -86 -34 -5 -39 46 -90 130 -130 109 -52 158 -63 293 -63 132 0 215 19
327 76 32 16 60 29 63 29 35 0 -86 -131 -201 -218 -38 -28 -104 -71 -147 -94
-80 -44 -96 -65 -82 -109 7 -22 9 -22 144 -16 388 19 697 151 939 401 88 91
203 251 241 336 25 55 28 148 5 191 -8 17 -60 78 -115 137 -54 58 -99 112 -99
120 0 8 11 27 25 44 29 34 34 100 11 134 -8 11 -48 47 -90 79 -42 33 -76 66
-76 73 0 7 37 55 81 105 395 446 652 980 729 1517 48 342 49 422 4 780 -102
819 -561 1727 -1285 2543 -63 71 -122 138 -131 150 -10 12 -26 72 -38 137 -34
194 -29 184 -107 199 -233 44 -541 93 -818 128 l-60 8 -6 155 c-12 319 -73
556 -211 820 -304 584 -861 953 -1537 1020 -133 13 -248 11 -388 -6z"/>
</g>
</svg>
